name ./resultDataOpenSim/trcMotMarkerGrf/sub06/grf-03-04.mot
datacolumns 19
datarows 30
range 0.48800000 0.60400000
endheader

                time	     ground_force_vx	     ground_force_vy	     ground_force_vz	     ground_force_px	     ground_force_py	     ground_force_pz	   l_ground_force_vx	   l_ground_force_vy	   l_ground_force_vz	   l_ground_force_px	   l_ground_force_py	   l_ground_force_pz	     ground_torque_x	     ground_torque_y	     ground_torque_z	   l_ground_torque_x	   l_ground_torque_y	   l_ground_torque_z	
          0.48800000	        116.17375985	        598.66646401	        -41.91635106	         -0.83577873	          0.00000000	          0.08819153	          0.00000000	          0.00000000	          0.00000000	          0.00000000	          0.00000000	          0.00000000	          0.00000000	          1.16032321	          0.00000000	          0.00000000	          0.00000000	          0.00000000	
          0.49200000	        123.48916471	        621.26658433	        -41.38667715	         -0.83497483	          0.00000000	          0.08793481	          0.00000000	          0.00000000	          0.00000000	          0.00000000	          0.00000000	          0.00000000	          0.00000000	          1.19241420	          0.00000000	          0.00000000	          0.00000000	          0.00000000	
          0.49600000	        131.42185334	        642.86276950	        -40.57381544	         -0.83433584	          0.00000000	          0.08763217	          0.00000000	          0.00000000	          0.00000000	          0.00000000	          0.00000000	          0.00000000	          0.00000000	          1.26590467	          0.00000000	          0.00000000	          0.00000000	          0.00000000	
          0.50000000	        139.76932621	        663.16761809	        -39.57297532	         -0.83381374	          0.00000000	          0.08730661	          0.00000000	          0.00000000	          0.00000000	          0.00000000	          0.00000000	          0.00000000	          0.00000000	          1.37647621	          0.00000000	          0.00000000	          0.00000000	          0.00000000	
          0.50400000	        148.33951688	        681.93594760	        -38.45692006	         -0.83335681	          0.00000000	          0.08698680	          0.00000000	          0.00000000	          0.00000000	          0.00000000	          0.00000000	          0.00000000	          0.00000000	          1.51892264	          0.00000000	          0.00000000	          0.00000000	          0.00000000	
          0.50800000	        156.97634754	        698.96966819	        -37.26748541	         -0.83292079	          0.00000000	          0.08669493	          0.00000000	          0.00000000	          0.00000000	          0.00000000	          0.00000000	          0.00000000	          0.00000000	          1.68650194	          0.00000000	          0.00000000	          0.00000000	          0.00000000	
          0.51200000	        165.56224173	        714.12165521	        -36.01867442	         -0.83248429	          0.00000000	          0.08643685	          0.00000000	          0.00000000	          0.00000000	          0.00000000	          0.00000000	          0.00000000	          0.00000000	          1.87072006	          0.00000000	          0.00000000	          0.00000000	          0.00000000	
          0.51600000	        174.01549434	        727.29135205	        -34.71326512	         -0.83204376	          0.00000000	          0.08620700	          0.00000000	          0.00000000	          0.00000000	          0.00000000	          0.00000000	          0.00000000	          0.00000000	          2.06162078	          0.00000000	          0.00000000	          0.00000000	          0.00000000	
          0.52000000	        182.29180166	        738.40371547	        -33.36314197	         -0.83160638	          0.00000000	          0.08600053	          0.00000000	          0.00000000	          0.00000000	          0.00000000	          0.00000000	          0.00000000	          0.00000000	          2.24832326	          0.00000000	          0.00000000	          0.00000000	          0.00000000	
          0.52400000	        190.38217872	        747.37903601	        -32.00381237	         -0.83117671	          0.00000000	          0.08581871	          0.00000000	          0.00000000	          0.00000000	          0.00000000	          0.00000000	          0.00000000	          0.00000000	          2.41950622	          0.00000000	          0.00000000	          0.00000000	          0.00000000	
          0.52800000	        198.30019744	        754.11301682	        -30.69862963	         -0.83074992	          0.00000000	          0.08567055	          0.00000000	          0.00000000	          0.00000000	          0.00000000	          0.00000000	          0.00000000	          0.00000000	          2.56372240	          0.00000000	          0.00000000	          0.00000000	          0.00000000	
          0.53200000	        206.06442295	        758.48708849	        -29.53157417	         -0.83032146	          0.00000000	          0.08556877	          0.00000000	          0.00000000	          0.00000000	          0.00000000	          0.00000000	          0.00000000	          0.00000000	          2.66966486	          0.00000000	          0.00000000	          0.00000000	          0.00000000	
          0.53600000	        213.68462048	        760.40030591	        -28.59254673	         -0.82989091	          0.00000000	          0.08552340	          0.00000000	          0.00000000	          0.00000000	          0.00000000	          0.00000000	          0.00000000	          0.00000000	          2.72663411	          0.00000000	          0.00000000	          0.00000000	          0.00000000	
          0.54000000	        221.15388904	        759.79544672	        -27.96018118	         -0.82946136	          0.00000000	          0.08553798	          0.00000000	          0.00000000	          0.00000000	          0.00000000	          0.00000000	          0.00000000	          0.00000000	          2.72538346	          0.00000000	          0.00000000	          0.00000000	          0.00000000	
          0.54400000	        228.44518480	        756.67008305	        -27.68334401	         -0.82903229	          0.00000000	          0.08561127	          0.00000000	          0.00000000	          0.00000000	          0.00000000	          0.00000000	          0.00000000	          0.00000000	          2.65928417	          0.00000000	          0.00000000	          0.00000000	          0.00000000	
          0.54800000	        235.51061136	        751.07665969	        -27.76606734	         -0.82859845	          0.00000000	          0.08574032	          0.00000000	          0.00000000	          0.00000000	          0.00000000	          0.00000000	          0.00000000	          0.00000000	          2.52549040	          0.00000000	          0.00000000	          0.00000000	          0.00000000	
          0.55200000	        242.28204319	        743.11081759	        -28.16260522	         -0.82815684	          0.00000000	          0.08591839	          0.00000000	          0.00000000	          0.00000000	          0.00000000	          0.00000000	          0.00000000	          0.00000000	          2.32566485	          0.00000000	          0.00000000	          0.00000000	          0.00000000	
          0.55600000	        248.67204314	        732.88110908	        -28.78158059	         -0.82770899	          0.00000000	          0.08613282	          0.00000000	          0.00000000	          0.00000000	          0.00000000	          0.00000000	          0.00000000	          0.00000000	          2.06593818	          0.00000000	          0.00000000	          0.00000000	          0.00000000	
          0.56000000	        254.57540548	        720.47195395	        -29.49488475	         -0.82725661	          0.00000000	          0.08636749	          0.00000000	          0.00000000	          0.00000000	          0.00000000	          0.00000000	          0.00000000	          0.00000000	          1.75606884	          0.00000000	          0.00000000	          0.00000000	          0.00000000	
          0.56400000	        259.86964221	        705.93329194	        -30.14914685	         -0.82679989	          0.00000000	          0.08660572	          0.00000000	          0.00000000	          0.00000000	          0.00000000	          0.00000000	          0.00000000	          0.00000000	          1.40807857	          0.00000000	          0.00000000	          0.00000000	          0.00000000	
          0.56800000	        264.41002544	        689.29576109	        -30.57828467	         -0.82634216	          0.00000000	          0.08683012	          0.00000000	          0.00000000	          0.00000000	          0.00000000	          0.00000000	          0.00000000	          0.00000000	          1.03478730	          0.00000000	          0.00000000	          0.00000000	          0.00000000	
          0.57200000	        268.02065829	        670.56898471	        -30.61721563	         -0.82589406	          0.00000000	          0.08702018	          0.00000000	          0.00000000	          0.00000000	          0.00000000	          0.00000000	          0.00000000	          0.00000000	          0.64861082	          0.00000000	          0.00000000	          0.00000000	          0.00000000	
          0.57600000	        270.49124302	        649.70680191	        -30.11686020	         -0.82547256	          0.00000000	          0.08715194	         -6.41399790	         24.61878497	          2.14912311	         -0.11744870	         -0.05000000	         -0.03291532	          0.00000000	          0.26081114	          0.00000000	          0.00000000	          0.01029959	          0.00000000	
          0.58000000	        271.58633549	        626.56609733	        -28.95650231	         -0.82510189	          0.00000000	          0.08720171	        -23.36301866	        213.59359470	          2.41446676	         -0.11112096	         -0.05000000	         -0.03396381	          0.00000000	         -0.11876361	          0.00000000	          0.00000000	         -0.44896957	          0.00000000	
          0.58400000	        271.06161785	        600.88932288	        -27.05000945	         -0.82481013	          0.00000000	          0.08715015	        -43.77781698	        387.22489910	          3.23800042	         -0.10564144	         -0.05000000	         -0.03473765	          0.00000000	         -0.48148610	          0.00000000	          0.00000000	         -0.90135697	          0.00000000	
          0.58800000	        268.67611313	        572.31577096	        -24.35156800	         -0.82463149	          0.00000000	          0.08698784	        -70.34727317	        533.34509550	          5.27254077	         -0.10041498	         -0.05000000	         -0.03549737	          0.00000000	         -0.81936175	          0.00000000	          0.00000000	         -1.32521838	          0.00000000	
          0.59200000	        264.20780161	        540.39840787	        -20.86658918	         -0.82460260	          0.00000000	          0.08671952	       -103.76204189	        647.27118794	          8.91677253	         -0.09519769	         -0.05000000	         -0.03628710	          0.00000000	         -1.12410551	          0.00000000	          0.00000000	         -1.68314594	          0.00000000	
          0.59600000	        257.46554026	        504.65248940	        -16.66448166	         -0.82474658	          0.00000000	          0.08638346	       -141.25221692	        730.49484257	         13.77232091	         -0.09000783	         -0.05000000	         -0.03700643	          0.00000000	         -1.38598853	          0.00000000	          0.00000000	         -1.92815560	          0.00000000	
          0.60000000	        248.24573694	        464.76668718	        -11.88889200	         -0.82502772	          0.00000000	          0.08606097	       -177.02213554	        786.20225093	         18.21426497	         -0.08499379	         -0.05000000	         -0.03740684	          0.00000000	         -1.59282293	          0.00000000	          0.00000000	         -2.01652924	          0.00000000	
          0.60400000	        236.27914917	        420.96406510	         -6.76165401	         -0.82534519	          0.00000000	          0.08581312	       -205.25023785	        816.93561918	         20.25430472	         -0.08037717	         -0.05000000	         -0.03733556	          0.00000000	         -1.72991244	          0.00000000	          0.00000000	         -1.92248162	          0.00000000	
